<svg xmlns="http://www.w3.org/2000/svg" xmlns:xlink="http://www.w3.org/1999/xlink" version="1.1" x="0px" y="0px" viewBox="0 0 81.813 101.98124999999999" enable-background="new 0 0 81.813 81.585" xml:space="preserve">
    <path fill="#000000" stroke="#FFFFFF" stroke-width="0" stroke-linecap="round" stroke-linejoin="round" d="M27.885,0.21  c0.029-0.007,0.057-0.014,0.085-0.021" />
    <path d="M57.57,22.843H38.584c0.4-0.431,0.845-0.919,1.414-1.642c1.844-2.341,1.713-4.387-0.774-6.228  c-0.491-0.364-1.31-0.583-1.93-0.586c-0.841-0.006-1.615,0.285-2.313,0.734c-0.77-0.232-1.917-0.327-2.682-0.069  c-1.593,0.31-3.106,1.949-3.108,1.95c-2.27,0.241-4.028,2.927-5.294,5.841H2.087v44.355h77.64v-7.275L57.57,22.843z M75.85,57.174  L46.356,36.271l9.29-11.125L75.85,57.174z M53.914,24.552l-8.185,9.8c0.006-1.566-0.938-3.246-2.03-4.235  c-0.797-0.721-1.518-1.324-2.225-2.136c-1.77-2.034-3.669-2.246-5.526-1.614c0.458-0.782,0.833-1.352,1.172-1.815H53.914z   M29.552,18.292c-2.143,2.86-3.873,6.458-4.523,9.846c0.488-0.796,3.041-10.688,7.62-11.819c0.017-0.004,0.034-0.008,0.05-0.012  c0.737-0.171,1.524-0.123,2.365,0.234c-3.756,3.267-6.763,10.581-7.017,12.488c2.564-5.959,6.602-15.196,10.399-13.002  c3.112,2.303,0.771,4.051-1.613,6.79c-1.984,2.277-2.982,5.022-4.698,7.475c3.372-2.751,5.958-4.199,8.353-1.449  c0.824,0.946,0.983,1.026,2.333,2.247c1.593,1.439,2.229,3.962,0.786,4.805c-2.168,1.268-3.52-1.017-4.413-2.327  c-2.299-3.37-7.549,4.936-4.179,6.384c0.824,0.356,2.654-0.04,3.652-1.198c1.113-1.294,2.262-2.256,3.53-2.177  c2.597,0.161,4.633,3.026,0.429,4.683c-3.868,2.259-3.506,3.719-5.571,5.833c-3.21,3.284-13.539,5.652-15.483-5.631  C20.732,36.599,24.802,18.215,29.552,18.292z M39.507,36.161c-1.607,1.14-1.695,2.067-3.048,2.487  c-0.984,0.304-1.366,0.111-1.2-0.967c0.171-1.124,0.985-2.52,1.868-3.233C38.273,33.525,37.871,34.439,39.507,36.161z   M78.018,65.489H3.796V24.552h19.418c-0.695,1.891-1.186,3.697-1.472,4.816c-0.79,3.089-2.005,9.155-1.461,12.314  c0.809,4.693,3.351,8.718,8.393,9.354c3.123,0.395,7.085-0.749,9.317-3.031c0.757-0.775,1.269-1.543,1.85-2.441  c0.965-1.487,1.838-2.229,3.364-3.129c1.665-0.679,3.431-2,3.11-4.032c-0.005-0.028-0.016-0.053-0.021-0.081l31.724,22.483V65.489z" />
</svg>